<svg width="176" height="197" viewBox="0 0 176 197" fill="none" xmlns="http://www.w3.org/2000/svg">
<path d="M82.9287 33.5645C89.0995 12.3708 90.0252 11.7438 85.1762 10.1668" stroke="#393893" stroke-width="7" stroke-linecap="round"/>
<path d="M38.9971 132.186C41.9601 121.807 37.8996 117.805 48.3271 110.473" stroke="#393893" stroke-width="7" stroke-linecap="round"/>
<path d="M117.881 46.8906C124.052 25.697 124.977 25.07 120.128 23.493" stroke="#393893" stroke-width="7" stroke-linecap="round"/>
<rect width="105" height="92" rx="46" transform="matrix(0.871852 0.48977 0.48977 -0.871852 23.0195 101.418)" fill="white" stroke="white" stroke-width="17" stroke-linecap="round" stroke-linejoin="round" stroke-dasharray="1 15"/>
<rect width="26" height="22" rx="11" transform="matrix(0.871852 0.48977 0.48977 -0.871852 63.6455 178.147)" fill="white" stroke="white" stroke-width="15" stroke-linecap="round" stroke-linejoin="round" stroke-dasharray="1 9"/>
<rect opacity="0.6" width="17" height="14" rx="7" transform="matrix(0.871852 0.48977 0.48977 -0.871852 28.3789 138.838)" fill="white" stroke="white" stroke-width="7" stroke-linecap="round" stroke-linejoin="round" stroke-dasharray="1 6"/>
<rect x="72.5859" y="94.8525" width="6" height="6" rx="3" transform="rotate(29.3255 72.5859 94.8525)" fill="#393893"/>
<rect x="90.9629" y="106.323" width="6" height="6" rx="3" transform="rotate(29.3255 90.9629 106.323)" fill="#393893"/>
<rect x="85.0566" y="86.9473" width="9" height="15" rx="4.5" transform="rotate(29.3255 85.0566 86.9473)" fill="white" stroke="#393893" stroke-width="2" stroke-linecap="round" stroke-linejoin="round"/>
<line x1="86.4787" y1="124.588" x2="83.3457" y2="123.259" stroke="#393893" stroke-width="3" stroke-linecap="round"/>
<line x1="66.8078" y1="114.685" x2="63.6748" y2="113.356" stroke="#393893" stroke-width="3" stroke-linecap="round"/>
<path d="M126.759 141.343C137.72 113.664 129.579 119.988 127.524 103.228" stroke="#393893" stroke-width="7" stroke-linecap="round"/>
</svg>
