<svg width="911" height="912" viewBox="0 0 911 912" fill="none" xmlns="http://www.w3.org/2000/svg">
<path d="M62.2682 243.624C58.1806 231.198 62.5512 217.834 72.5693 209.423C76.4007 206.206 80.8477 203.872 85.7168 202.724C107.396 197.612 171.773 184.312 205.215 197.735C197.611 250.508 155.832 290.695 124.438 342.595C92.9783 325.44 71.9277 272.987 62.2682 243.624Z" fill="#BDBBED"/>
<path d="M604.362 94.7474C601.689 81.9424 591.222 72.5542 578.341 70.279C573.414 69.4089 568.396 69.6113 563.605 71.0515C542.274 77.4642 479.873 98.1347 457.623 126.48C490.594 168.381 546.87 182.294 600.007 211.544C618.675 180.958 610.679 125.007 604.362 94.7474Z" fill="#BDBBED"/>
<rect x="83.7754" y="191.545" width="491.229" height="1510.2" rx="245.614" transform="rotate(-15 83.7754 191.545)" fill="white" stroke="white" stroke-width="79" stroke-linecap="round" stroke-linejoin="round" stroke-dasharray="1 50"/>
<rect x="172.048" y="300.822" width="304.544" height="192.528" rx="95" transform="rotate(-15 172.048 300.822)" fill="#BDBBED"/>
<path d="M308.156 416.56C301.15 390.416 316.665 363.544 342.809 356.539C368.953 349.534 395.825 365.048 402.83 391.192L414.608 435.148L319.934 460.516L308.156 416.56Z" fill="white"/>
<rect x="193.728" y="327.629" width="101.515" height="101.515" rx="50.7573" transform="rotate(-15 193.728 327.629)" fill="white"/>
<rect x="363.694" y="285.709" width="101.515" height="101.515" rx="50.7573" transform="rotate(-15 363.694 285.709)" fill="white"/>
<rect x="211.049" y="333.508" width="52.5076" height="52.5076" rx="26.2538" transform="rotate(-15 211.049 333.508)" fill="#5856D4"/>
<rect width="14.002" height="14.002" rx="7.00101" transform="matrix(0.965926 -0.258819 -0.258819 -0.965926 228.683 372.27)" fill="white"/>
<rect x="381.016" y="291.59" width="52.5076" height="52.5076" rx="26.2538" transform="rotate(-15 381.016 291.59)" fill="#5856D4"/>
<rect width="14.002" height="14.002" rx="7.00101" transform="matrix(0.965926 -0.258819 -0.258819 -0.965926 398.65 330.352)" fill="white"/>
<line x1="334.564" y1="393.286" x2="351.123" y2="400.541" stroke="#5856D4" stroke-width="10" stroke-linecap="round"/>
<line x1="5" y1="-5" x2="23.0786" y2="-5" transform="matrix(-0.592578 0.805513 0.805513 0.592578 374.571 383.375)" stroke="#5856D4" stroke-width="10" stroke-linecap="round"/>
<line x1="356.467" y1="405.166" x2="366.563" y2="442.844" stroke="#5856D4" stroke-width="10" stroke-linecap="square"/>
</svg>
