<svg width="162" height="172" viewBox="0 0 162 172" fill="none" xmlns="http://www.w3.org/2000/svg">
<path d="M69.2158 33.0659C75.3866 11.8723 76.3123 11.2453 71.4633 9.66829" stroke="#343440" stroke-width="7" stroke-linecap="round"/>
<path d="M25.2842 131.688C28.2472 121.309 24.1867 117.307 34.6143 109.975" stroke="#343440" stroke-width="7" stroke-linecap="round"/>
<path d="M104.168 46.3923C110.339 25.1987 111.264 24.5717 106.415 22.9947" stroke="#343440" stroke-width="7" stroke-linecap="round"/>
<rect width="105" height="92" rx="46" transform="matrix(0.871852 0.48977 0.48977 -0.871852 9.30566 100.919)" fill="white" stroke="white" stroke-width="17" stroke-linecap="round" stroke-linejoin="round" stroke-dasharray="1 15"/>
<rect x="58.873" y="94.3545" width="6" height="6" rx="3" transform="rotate(29.3255 58.873 94.3545)" fill="#343440"/>
<rect x="77.249" y="105.824" width="6" height="6" rx="3" transform="rotate(29.3255 77.249 105.824)" fill="#343440"/>
<rect x="71.3428" y="86.4487" width="9" height="15" rx="4.5" transform="rotate(29.3255 71.3428 86.4487)" fill="white" stroke="#343440" stroke-width="2" stroke-linecap="round" stroke-linejoin="round"/>
<line x1="72.7648" y1="124.09" x2="69.6319" y2="122.761" stroke="#343440" stroke-width="3" stroke-linecap="round"/>
<line x1="53.0939" y1="114.187" x2="49.961" y2="112.858" stroke="#343440" stroke-width="3" stroke-linecap="round"/>
<path d="M113.046 140.844C124.007 113.166 115.866 119.489 113.811 102.73" stroke="#343440" stroke-width="7" stroke-linecap="round"/>
</svg>
