<svg width="333" height="583" viewBox="0 0 333 583" fill="none" xmlns="http://www.w3.org/2000/svg">
<g clip-path="url(#clip0_511_4520)">
<path d="M116.369 546.543C104.511 547.208 93.8185 540.235 88.7963 529.472V529.472C86.8756 525.357 85.8739 520.908 86.0112 516.368C86.6225 496.155 90.0865 436.573 109.716 410.4C154.21 429.469 179.635 475.552 217.773 515.278C195.336 538.837 144.39 544.972 116.369 546.543Z" fill="#BDBBED"/>
<path d="M113.191 36.1583C101.334 35.4935 90.6408 42.4666 85.6186 53.2287V53.2287C83.6979 57.3446 82.6962 61.7929 82.8335 66.3327C83.4448 86.5463 86.9088 146.128 106.538 172.301C151.032 153.232 176.458 107.15 214.595 67.4227C192.158 43.8645 141.212 37.7294 113.191 36.1583Z" fill="#BDBBED"/>
<rect x="39.2539" y="513.635" width="465.158" height="1429.75" rx="232.579" transform="rotate(-90 39.2539 513.635)" fill="white" stroke="white" stroke-width="73" stroke-linecap="round" stroke-linejoin="round" stroke-dasharray="1 50"/>
<rect x="77" y="494" width="426" height="1310" rx="213" transform="rotate(-90 77 494)" fill="#DDDDEA" stroke="#DDDDEA" stroke-width="73" stroke-linecap="round" stroke-linejoin="round" stroke-dasharray="1 50"/>
<rect x="90" y="417.737" width="276.497" height="174.797" rx="87.3986" transform="rotate(-90 90 417.737)" fill="#BDBBED"/>
<path d="M223.483 325.571C198.91 325.571 178.989 305.651 178.989 281.077V281.077C178.989 256.504 198.91 236.584 223.483 236.584L264.799 236.584L264.799 325.571L223.483 325.571Z" fill="white"/>
<rect x="118.604" y="405.025" width="92.1658" height="92.1658" rx="46.0829" transform="rotate(-90 118.604 405.025)" fill="white"/>
<rect x="121.782" y="246.118" width="92.1658" height="92.1658" rx="46.0829" transform="rotate(-90 121.782 246.118)" fill="white"/>
<rect x="122" y="386.735" width="47.672" height="47.672" rx="23.836" transform="rotate(-90 122 386.735)" fill="#5856D4"/>
<rect width="12.7125" height="12.7125" rx="6.35626" transform="matrix(-4.37114e-08 -1 -1 4.37114e-08 160.141 380.379)" fill="white"/>
<rect x="125.178" y="227.828" width="47.672" height="47.672" rx="23.836" transform="rotate(-90 125.178 227.828)" fill="#5856D4"/>
<rect width="12.7125" height="12.7125" rx="6.35626" transform="matrix(-4.37114e-08 -1 -1 4.37114e-08 163.318 221.473)" fill="white"/>
<line x1="209.214" y1="296.296" x2="218.892" y2="284.199" stroke="#5856D4" stroke-width="10" stroke-linecap="round"/>
<line x1="5" y1="-5" x2="20.4927" y2="-5" transform="matrix(0.624695 0.780869 0.780869 -0.624695 209.995 259.529)" stroke="#5856D4" stroke-width="10" stroke-linecap="round"/>
<line x1="225.304" y1="280.065" x2="259.798" y2="280.065" stroke="#5856D4" stroke-width="10" stroke-linecap="square"/>
<path d="M167.5 417.737C167.5 417.737 245.5 423 245.5 279C245.5 135 167.5 141.5 167.5 141.5C167.5 141.5 202.5 138.5 231.5 160.5C260.5 182.5 264.797 227.5 264.797 227.5L264.797 334.5C264.797 334.5 261.5 381 228 402C194.5 423 167.5 417.737 167.5 417.737Z" fill="#ADABE8" fill-opacity="0.5"/>
</g>
<defs>
<clipPath id="clip0_511_4520">
<rect width="583" height="333" fill="white" transform="translate(0 583) rotate(-90)"/>
</clipPath>
</defs>
</svg>
