<svg width="1794" height="172" viewBox="0 0 1794 172" fill="none" xmlns="http://www.w3.org/2000/svg">
<g clip-path="url(#clip0_627_181)">
<path d="M1062.3 167.352C1064.62 166.648 1066.06 164.339 1065.67 161.946L1063.08 145.826C1062.43 141.778 1058.35 139.235 1054.43 140.425V140.425C1050.6 141.588 1048.61 145.804 1050.15 149.501L1056.42 164.577C1057.37 166.874 1059.91 168.074 1062.3 167.352V167.352Z" fill="#E5E5EB" stroke="#E5E5EB" stroke-width="6" stroke-linecap="round" stroke-linejoin="round" stroke-dasharray="1 5"/>
<path d="M1027.4 177.938C1029.72 177.234 1031.16 174.925 1030.78 172.532L1028.18 156.412C1027.53 152.365 1023.46 149.821 1019.53 151.012V151.012C1015.7 152.174 1013.71 156.391 1015.25 160.088L1021.52 175.163C1022.48 177.461 1025.02 178.661 1027.4 177.938V177.938Z" fill="#E5E5EB" stroke="#E5E5EB" stroke-width="6" stroke-linecap="round" stroke-linejoin="round" stroke-dasharray="1 5"/>
<path d="M1073.64 39.4155C1073.39 38.3653 1072.5 37.6184 1071.43 37.4653V37.4653C1071.02 37.4068 1070.6 37.4371 1070.21 37.569C1068.47 38.1563 1063.37 40.032 1061.61 42.4329C1064.45 45.8038 1069.13 46.8004 1073.6 49.072C1075.06 46.4958 1074.25 41.8971 1073.64 39.4155Z" fill="#D5D4E2"/>
<path d="M1029.11 52.6224C1028.74 51.6074 1029.07 50.492 1029.87 49.7703V49.7703C1030.18 49.4943 1030.54 49.2896 1030.94 49.1816C1032.71 48.7008 1037.99 47.4284 1040.79 48.4463C1040.31 52.8248 1036.97 56.2564 1034.51 60.627C1031.87 59.2956 1029.99 55.0211 1029.11 52.6224Z" fill="#D5D4E2"/>
<rect width="42.8043" height="78.3782" rx="21.4022" transform="matrix(-0.956932 0.290311 0.290311 0.956932 1069.75 36.0869)" fill="white" stroke="white" stroke-width="6" stroke-linecap="round" stroke-linejoin="round" stroke-dasharray="1 5"/>
<rect width="57.3032" height="104.588" rx="28.6516" transform="matrix(-0.290311 -0.956932 -0.956932 0.290311 1099.1 133.992)" fill="white" stroke="white" stroke-width="6" stroke-linecap="round" stroke-linejoin="round" stroke-dasharray="1 5"/>
<path d="M1079.72 165.417C1082.04 164.713 1083.48 162.404 1083.09 160.011L1080.5 143.891C1079.84 139.844 1075.77 137.3 1071.85 138.491V138.491C1068.02 139.653 1066.03 143.87 1067.57 147.567L1073.84 162.642C1074.79 164.94 1077.33 166.14 1079.72 165.417V165.417Z" fill="white" stroke="white" stroke-width="6" stroke-linecap="round" stroke-linejoin="round" stroke-dasharray="1 5"/>
<path d="M1043.67 176.353C1045.99 175.649 1047.43 173.34 1047.05 170.947L1044.45 154.827C1043.8 150.779 1039.73 148.236 1035.8 149.426V149.426C1031.97 150.589 1029.98 154.805 1031.52 158.502L1037.79 173.578C1038.75 175.875 1041.29 177.075 1043.67 176.353V176.353Z" fill="white" stroke="white" stroke-width="6" stroke-linecap="round" stroke-linejoin="round" stroke-dasharray="1 5"/>
<rect width="25.4512" height="15.907" rx="7.95351" transform="matrix(-0.956932 0.290311 0.290311 0.956932 1065.82 52.9976)" fill="#D5D4E2"/>
<path d="M1060.85 67.5011C1060.2 65.3612 1057.94 64.1527 1055.8 64.802V64.802C1053.66 65.4512 1052.45 67.7122 1053.1 69.8521L1054.1 73.1733L1061.85 70.8223L1060.85 67.5011Z" fill="white"/>
<rect width="8.09812" height="8.09812" rx="4.04906" transform="matrix(-0.956932 0.290311 0.290311 0.956932 1065.19 55.9082)" fill="white"/>
<rect width="8.09812" height="8.09812" rx="4.04906" transform="matrix(-0.956932 0.290311 0.290311 0.956932 1051.16 60.1768)" fill="white"/>
<rect width="4.40794" height="4.40794" rx="2.20397" transform="matrix(-0.956932 0.290311 0.290311 0.956932 1064.02 58.3716)" fill="#343440"/>
<rect x="1064.8" y="62.3228" width="1.60289" height="1.60289" rx="0.801444" transform="rotate(163.123 1064.8 62.3228)" fill="white"/>
<rect width="4.40794" height="4.40794" rx="2.20397" transform="matrix(-0.956932 0.290311 0.290311 0.956932 1050.21 62.5596)" fill="#343440"/>
<rect x="1050.99" y="66.5107" width="1.60289" height="1.60289" rx="0.801444" transform="rotate(163.123 1050.99 66.5107)" fill="white"/>
<line x1="0.5" y1="-0.5" x2="1.83258" y2="-0.5" transform="matrix(-0.565883 0.824486 0.824486 0.565883 1058.58 66.667)" stroke="#343440" stroke-linecap="round"/>
<line x1="1055.39" y1="67.5518" x2="1056.63" y2="68.0463" stroke="#343440" stroke-linecap="round"/>
<line x1="0.5" y1="-0.5" x2="3.54906" y2="-0.5" transform="matrix(0.290311 0.956932 0.956932 -0.290311 1057.36 67.9556)" stroke="#343440" stroke-linecap="square"/>
<path d="M1752.51 184.843C1750.37 185.975 1747.72 185.348 1746.31 183.377L1736.81 170.096C1734.43 166.761 1735.53 162.089 1739.16 160.174V160.174C1742.7 158.304 1747.08 159.9 1748.59 163.609L1754.74 178.734C1755.67 181.04 1754.71 183.681 1752.51 184.843V184.843Z" fill="#E5E5EB" stroke="#E5E5EB" stroke-width="6" stroke-linecap="round" stroke-linejoin="round" stroke-dasharray="1 5"/>
<path d="M1784.76 167.814C1782.61 168.945 1779.96 168.319 1778.55 166.348L1769.06 153.066C1766.67 149.732 1767.78 145.059 1771.4 143.145V143.145C1774.94 141.275 1779.32 142.871 1780.83 146.58L1786.98 161.705C1787.92 164.01 1786.96 166.651 1784.76 167.814V167.814Z" fill="#E5E5EB" stroke="#E5E5EB" stroke-width="6" stroke-linecap="round" stroke-linejoin="round" stroke-dasharray="1 5"/>
<path d="M1654.43 101.915C1653.88 100.989 1653.98 99.8322 1654.64 98.9707V98.9707C1654.89 98.6412 1655.2 98.3715 1655.57 98.1896C1657.22 97.3798 1662.17 95.1264 1665.11 95.5937C1665.46 99.9845 1662.84 103.989 1661.26 108.746C1658.41 107.942 1655.75 104.103 1654.43 101.915Z" fill="#D5D4E2"/>
<path d="M1695.37 79.9687C1694.92 78.9863 1693.9 78.4222 1692.82 78.4754V78.4754C1692.41 78.4958 1692.01 78.6042 1691.65 78.8082C1690.05 79.7164 1685.4 82.5273 1684.13 85.2192C1687.56 87.9892 1692.35 88.0767 1697.16 89.4573C1698.11 86.6507 1696.43 82.2903 1695.37 79.9687Z" fill="#D5D4E2"/>
<rect x="1654.86" y="96.813" width="42.8043" height="78.3782" rx="21.4022" transform="rotate(-27.8399 1654.86 96.813)" fill="white" stroke="white" stroke-width="6" stroke-linecap="round" stroke-linejoin="round" stroke-dasharray="1 5"/>
<rect x="1702.89" y="187.034" width="57.3032" height="104.588" rx="28.6516" transform="rotate(-117.84 1702.89 187.034)" fill="white" stroke="white" stroke-width="6" stroke-linecap="round" stroke-linejoin="round" stroke-dasharray="1 5"/>
<path d="M1738.77 195.725C1736.63 196.857 1733.98 196.23 1732.57 194.259L1723.07 180.978C1720.69 177.643 1721.79 172.971 1725.42 171.056V171.056C1728.96 169.186 1733.34 170.782 1734.85 174.491L1741 189.616C1741.94 191.922 1740.97 194.562 1738.77 195.725V195.725Z" fill="white" stroke="white" stroke-width="6" stroke-linecap="round" stroke-linejoin="round" stroke-dasharray="1 5"/>
<path d="M1772.08 178.134C1769.94 179.266 1767.29 178.64 1765.88 176.668L1756.38 163.387C1754 160.052 1755.1 155.38 1758.72 153.465V153.465C1762.27 151.595 1766.65 153.191 1768.16 156.9L1774.31 172.025C1775.24 174.331 1774.28 176.972 1772.08 178.134V178.134Z" fill="white" stroke="white" stroke-width="6" stroke-linecap="round" stroke-linejoin="round" stroke-dasharray="1 5"/>
<rect x="1669.55" y="106.06" width="25.4512" height="15.907" rx="7.95351" transform="rotate(-27.8399 1669.55 106.06)" fill="#D5D4E2"/>
<path d="M1683.29 112.869C1682.24 110.892 1683 108.442 1684.98 107.398V107.398C1686.95 106.354 1689.4 107.11 1690.45 109.088L1692.07 112.157L1684.91 115.938L1683.29 112.869Z" fill="white"/>
<rect x="1672.05" y="107.686" width="8.09812" height="8.09812" rx="4.04906" transform="rotate(-27.8399 1672.05 107.686)" fill="white"/>
<rect x="1685.01" y="100.852" width="8.09812" height="8.09812" rx="4.04906" transform="rotate(-27.8399 1685.01 100.852)" fill="white"/>
<rect x="1674.61" y="108.612" width="4.40794" height="4.40794" rx="2.20397" transform="rotate(-27.8399 1674.61 108.612)" fill="#343440"/>
<rect width="1.60289" height="1.60289" rx="0.801444" transform="matrix(0.884256 -0.467002 -0.467002 -0.884256 1676.84 111.968)" fill="white"/>
<rect x="1687.37" y="101.875" width="4.40794" height="4.40794" rx="2.20397" transform="rotate(-27.8399 1687.37 101.875)" fill="#343440"/>
<rect width="1.60289" height="1.60289" rx="0.801444" transform="matrix(0.884256 -0.467002 -0.467002 -0.884256 1689.59 105.231)" fill="white"/>
<line x1="1684.9" y1="110.282" x2="1686.21" y2="110.533" stroke="#343440" stroke-linecap="round"/>
<line x1="0.5" y1="-0.5" x2="1.83258" y2="-0.5" transform="matrix(-0.398754 0.917058 0.917058 0.398754 1687.86 108.808)" stroke="#343440" stroke-linecap="round"/>
<line x1="1686.76" y1="110.946" x2="1688.19" y2="113.642" stroke="#343440" stroke-linecap="square"/>
<path d="M1431.93 55.628C1433.41 53.7069 1436.08 53.1737 1438.18 54.3797L1452.34 62.5044C1455.9 64.5444 1456.84 69.2525 1454.34 72.5019V72.5019C1451.9 75.6756 1447.25 76.0475 1444.34 73.3023L1432.45 62.1086C1430.64 60.4023 1430.41 57.6007 1431.93 55.628V55.628Z" fill="#E5E5EB" stroke="#E5E5EB" stroke-width="6" stroke-linecap="round" stroke-linejoin="round" stroke-dasharray="1 5"/>
<path d="M1409.7 84.5308C1411.18 82.6098 1413.85 82.0765 1415.95 83.2826L1430.11 91.4072C1433.67 93.4473 1434.61 98.1553 1432.11 101.405V101.405C1429.67 104.578 1425.02 104.95 1422.1 102.205L1410.22 91.0114C1408.4 89.3051 1408.18 86.5035 1409.7 84.5308V84.5308Z" fill="#E5E5EB" stroke="#E5E5EB" stroke-width="6" stroke-linecap="round" stroke-linejoin="round" stroke-dasharray="1 5"/>
<path d="M1555.62 90.2233C1556.52 90.8333 1556.9 91.9296 1556.67 92.9845V92.9845C1556.58 93.388 1556.4 93.7644 1556.14 94.0842C1554.97 95.5083 1551.42 99.6137 1548.55 100.412C1546.4 96.5681 1547.12 91.8334 1546.57 86.8518C1549.5 86.3975 1553.52 88.7818 1555.62 90.2233Z" fill="#D5D4E2"/>
<path d="M1527.53 127.213C1528.35 127.919 1529.51 128.009 1530.47 127.512V127.512C1530.84 127.321 1531.15 127.056 1531.4 126.721C1532.47 125.229 1535.53 120.739 1535.57 117.762C1531.3 116.669 1526.91 118.582 1521.95 119.331C1522.26 122.276 1525.6 125.545 1527.53 127.213Z" fill="#D5D4E2"/>
<rect x="1557.36" y="95.0381" width="42.8043" height="78.3782" rx="21.4022" transform="rotate(127.57 1557.36 95.0381)" fill="white" stroke="white" stroke-width="6" stroke-linecap="round" stroke-linejoin="round" stroke-dasharray="1 5"/>
<rect x="1476.15" y="32.9858" width="57.3032" height="104.588" rx="28.6516" transform="rotate(37.5703 1476.15 32.9858)" fill="white" stroke="white" stroke-width="6" stroke-linecap="round" stroke-linejoin="round" stroke-dasharray="1 5"/>
<path d="M1439.9 40.0157C1441.38 38.0946 1444.05 37.5614 1446.15 38.7674L1460.31 46.8921C1463.87 48.9321 1464.81 53.6402 1462.31 56.8896V56.8896C1459.87 60.0633 1455.22 60.4352 1452.3 57.69L1440.42 46.4963C1438.6 44.79 1438.38 41.9883 1439.9 40.0157V40.0157Z" fill="white" stroke="white" stroke-width="6" stroke-linecap="round" stroke-linejoin="round" stroke-dasharray="1 5"/>
<path d="M1416.93 69.8716C1418.41 67.9506 1421.08 67.4173 1423.18 68.6234L1437.34 76.7481C1440.9 78.7881 1441.84 83.4961 1439.34 86.7455V86.7455C1436.9 89.9193 1432.25 90.2912 1429.33 87.546L1417.45 76.3522C1415.64 74.6459 1415.41 71.8443 1416.93 69.8716V69.8716Z" fill="white" stroke="white" stroke-width="6" stroke-linecap="round" stroke-linejoin="round" stroke-dasharray="1 5"/>
<rect x="1540.15" y="92.7451" width="25.4512" height="15.907" rx="7.95351" transform="rotate(127.57 1540.15 92.7451)" fill="#D5D4E2"/>
<path d="M1524.83 92.2685C1526.6 93.632 1526.93 96.1742 1525.57 97.9466V97.9466C1524.21 99.7191 1521.66 100.051 1519.89 98.6871L1517.14 96.5709L1522.08 90.1523L1524.83 92.2685Z" fill="white"/>
<rect x="1537.21" y="92.3042" width="8.09812" height="8.09812" rx="4.04906" transform="rotate(127.57 1537.21 92.3042)" fill="white"/>
<rect x="1528.26" y="103.916" width="8.09812" height="8.09812" rx="4.04906" transform="rotate(127.57 1528.26 103.916)" fill="white"/>
<rect x="1534.49" y="92.5298" width="4.40794" height="4.40794" rx="2.20397" transform="rotate(127.57 1534.49 92.5298)" fill="#343440"/>
<rect width="1.60289" height="1.60289" rx="0.801444" transform="matrix(-0.609734 0.792606 0.792606 0.609734 1531.07 90.4043)" fill="white"/>
<rect x="1525.69" y="103.964" width="4.40794" height="4.40794" rx="2.20397" transform="rotate(127.57 1525.69 103.964)" fill="#343440"/>
<rect width="1.60289" height="1.60289" rx="0.801444" transform="matrix(-0.609734 0.792606 0.792606 0.609734 1522.27 101.838)" fill="white"/>
<line x1="1524.44" y1="95.2917" x2="1523.15" y2="95.6088" stroke="#343440" stroke-linecap="round"/>
<line x1="0.5" y1="-0.5" x2="1.83258" y2="-0.5" transform="matrix(-0.0190147 -0.999819 -0.999819 0.0190147 1522.36 97.8633)" stroke="#343440" stroke-linecap="round"/>
<line x1="1522.47" y1="95.4635" x2="1520.05" y2="93.6044" stroke="#343440" stroke-linecap="square"/>
<rect x="1819.45" y="214.344" width="42.8043" height="78.3782" rx="21.4022" transform="rotate(-140.58 1819.45 214.344)" fill="white" stroke="white" stroke-width="6" stroke-linecap="round" stroke-linejoin="round" stroke-dasharray="1 5"/>
<rect x="1884.09" y="135.172" width="57.3032" height="104.588" rx="28.6516" transform="rotate(129.42 1884.09 135.172)" fill="white" stroke="white" stroke-width="6" stroke-linecap="round" stroke-linejoin="round" stroke-dasharray="1 5"/>
<path d="M1121.38 185.585C1119.26 184.405 1118.34 181.841 1119.23 179.585L1125.19 164.386C1126.69 160.569 1131.21 158.95 1134.79 160.947V160.947C1138.29 162.898 1139.33 167.442 1137.05 170.727L1127.71 184.124C1126.29 186.166 1123.55 186.798 1121.38 185.585V185.585Z" fill="#E5E5EB" stroke="#E5E5EB" stroke-width="6" stroke-linecap="round" stroke-linejoin="round" stroke-dasharray="1 5"/>
<path d="M1153.22 203.35C1151.11 202.169 1150.19 199.606 1151.07 197.35L1157.04 182.15C1158.54 178.334 1163.05 176.715 1166.64 178.712V178.712C1170.13 180.663 1171.18 185.206 1168.89 188.492L1159.56 201.889C1158.14 203.931 1155.4 204.562 1153.22 203.35V203.35Z" fill="#E5E5EB" stroke="#E5E5EB" stroke-width="6" stroke-linecap="round" stroke-linejoin="round" stroke-dasharray="1 5"/>
<path d="M1137.5 58.1626C1137.97 57.1908 1139 56.6501 1140.07 56.7281V56.7281C1140.49 56.7579 1140.88 56.8755 1141.24 57.0877C1142.82 58.0324 1147.4 60.9491 1148.61 63.6695C1145.12 66.3602 1140.33 66.3379 1135.48 67.6076C1134.61 64.7801 1136.38 60.4592 1137.5 58.1626Z" fill="#D5D4E2"/>
<path d="M1178.2 80.5366C1178.78 79.6237 1178.7 78.4648 1178.06 77.5885V77.5885C1177.82 77.2534 1177.51 76.9766 1177.15 76.7862C1175.51 75.9387 1170.62 73.5726 1167.67 73.9723C1167.22 78.3537 1169.75 82.4174 1171.22 87.2095C1174.09 86.4708 1176.83 82.6939 1178.2 80.5366Z" fill="#D5D4E2"/>
<rect x="1142" y="55.7373" width="42.8043" height="78.3782" rx="21.4022" transform="rotate(29.1541 1142 55.7373)" fill="white" stroke="white" stroke-width="6" stroke-linecap="round" stroke-linejoin="round" stroke-dasharray="1 5"/>
<rect x="1092.51" y="145.162" width="57.3032" height="104.588" rx="28.6516" transform="rotate(-60.8459 1092.51 145.162)" fill="white" stroke="white" stroke-width="6" stroke-linecap="round" stroke-linejoin="round" stroke-dasharray="1 5"/>
<path d="M1104.77 179.991C1102.65 178.81 1101.73 176.247 1102.62 173.99L1108.58 158.791C1110.08 154.975 1114.6 153.355 1118.18 155.353V155.353C1121.68 157.303 1122.72 161.847 1120.44 165.132L1111.1 178.529C1109.68 180.571 1106.94 181.203 1104.77 179.991V179.991Z" fill="white" stroke="white" stroke-width="6" stroke-linecap="round" stroke-linejoin="round" stroke-dasharray="1 5"/>
<path d="M1137.66 198.341C1135.55 197.16 1134.63 194.597 1135.51 192.341L1141.48 177.142C1142.97 173.325 1147.49 171.706 1151.07 173.703V173.703C1154.57 175.654 1155.62 180.197 1153.33 183.483L1144 196.88C1142.57 198.922 1139.84 199.554 1137.66 198.341V198.341Z" fill="white" stroke="white" stroke-width="6" stroke-linecap="round" stroke-linejoin="round" stroke-dasharray="1 5"/>
<rect x="1142.25" y="73.0981" width="25.4512" height="15.907" rx="7.95351" transform="rotate(29.1541 1142.25 73.0981)" fill="#D5D4E2"/>
<path d="M1144.03 88.3271C1145.12 86.3742 1147.58 85.6742 1149.54 86.7636V86.7636C1151.49 87.853 1152.19 90.3193 1151.1 92.2722L1149.41 95.3031L1142.34 91.358L1144.03 88.3271Z" fill="white"/>
<rect x="1142.25" y="76.0757" width="8.09812" height="8.09812" rx="4.04906" transform="rotate(29.1541 1142.25 76.0757)" fill="white"/>
<rect x="1155.05" y="83.229" width="8.09812" height="8.09812" rx="4.04906" transform="rotate(29.1541 1155.05 83.229)" fill="white"/>
<rect x="1142.87" y="78.7319" width="4.40794" height="4.40794" rx="2.20397" transform="rotate(29.1541 1142.87 78.7319)" fill="#343440"/>
<rect width="1.60289" height="1.60289" rx="0.801444" transform="matrix(0.873313 0.48716 0.48716 -0.873313 1141.27 82.4268)" fill="white"/>
<rect x="1155.47" y="85.7598" width="4.40794" height="4.40794" rx="2.20397" transform="rotate(29.1541 1155.47 85.7598)" fill="#343440"/>
<rect width="1.60289" height="1.60289" rx="0.801444" transform="matrix(0.873313 0.48716 0.48716 -0.873313 1153.87 89.4546)" fill="white"/>
<line x1="1147.07" y1="88.2688" x2="1147.58" y2="89.5027" stroke="#343440" stroke-linecap="round"/>
<line x1="0.5" y1="-0.5" x2="1.83258" y2="-0.5" transform="matrix(-0.986269 0.165146 0.165146 0.986269 1149.92 89.9468)" stroke="#343440" stroke-linecap="round"/>
<line x1="1147.53" y1="90.1929" x2="1146.05" y2="92.8557" stroke="#343440" stroke-linecap="square"/>
<path d="M427.633 172.106C426.179 174.045 423.516 174.612 421.399 173.432L407.137 165.483C403.556 163.488 402.557 158.792 405.016 155.512V155.512C407.418 152.308 412.061 151.878 415.01 154.587L427.034 165.632C428.867 167.316 429.126 170.115 427.633 172.106V172.106Z" fill="#E5E5EB" stroke="#E5E5EB" stroke-width="6" stroke-linecap="round" stroke-linejoin="round" stroke-dasharray="1 5"/>
<path d="M281.647 168.225C280.748 167.626 280.35 166.534 280.572 165.476V165.476C280.656 165.072 280.826 164.693 281.084 164.37C282.232 162.932 285.737 158.783 288.595 157.949C290.794 161.766 290.129 166.509 290.737 171.484C287.818 171.974 283.773 169.64 281.647 168.225Z" fill="#D5D4E2"/>
<path d="M309.277 130.889C308.45 130.193 307.291 130.117 306.338 130.627V130.627C305.973 130.822 305.658 131.091 305.42 131.429C304.361 132.934 301.361 137.461 301.361 140.439C305.642 141.479 310.009 139.512 314.954 138.701C314.607 135.761 311.232 132.533 309.277 130.889Z" fill="#D5D4E2"/>
<rect x="279.849" y="163.432" width="42.8043" height="78.3782" rx="21.4022" transform="rotate(-53.1406 279.849 163.432)" fill="white" stroke="white" stroke-width="6" stroke-linecap="round" stroke-linejoin="round" stroke-dasharray="1 5"/>
<rect x="361.83" y="224.472" width="57.3032" height="104.588" rx="28.6516" transform="rotate(-143.141 361.83 224.472)" fill="white" stroke="white" stroke-width="6" stroke-linecap="round" stroke-linejoin="round" stroke-dasharray="1 5"/>
<path d="M420.583 186.854C419.129 188.793 416.465 189.36 414.348 188.18L400.086 180.232C396.505 178.236 395.506 173.54 397.965 170.26V170.26C400.367 167.056 405.01 166.626 407.959 169.335L419.984 180.381C421.817 182.064 422.075 184.863 420.583 186.854V186.854Z" fill="white" stroke="white" stroke-width="6" stroke-linecap="round" stroke-linejoin="round" stroke-dasharray="1 5"/>
<rect x="297.087" y="165.511" width="25.4512" height="15.907" rx="7.95351" transform="rotate(-53.1406 297.087 165.511)" fill="#D5D4E2"/>
<path d="M312.415 165.797C310.626 164.456 310.263 161.918 311.605 160.129V160.129C312.946 158.34 315.484 157.977 317.273 159.318L320.05 161.4L315.192 167.879L312.415 165.797Z" fill="white"/>
<rect x="300.037" y="165.916" width="8.09812" height="8.09812" rx="4.04906" transform="rotate(-53.1406 300.037 165.916)" fill="white"/>
<rect x="308.841" y="154.194" width="8.09812" height="8.09812" rx="4.04906" transform="rotate(-53.1406 308.841 154.194)" fill="white"/>
<rect x="302.753" y="165.656" width="4.40794" height="4.40794" rx="2.20397" transform="rotate(-53.1406 302.753 165.656)" fill="#343440"/>
<rect width="1.60289" height="1.60289" rx="0.801444" transform="matrix(0.599854 -0.80011 -0.80011 -0.599854 306.199 167.739)" fill="white"/>
<rect x="311.406" y="154.114" width="4.40794" height="4.40794" rx="2.20397" transform="rotate(-53.1406 311.406 154.114)" fill="#343440"/>
<rect width="1.60289" height="1.60289" rx="0.801444" transform="matrix(0.599854 -0.80011 -0.80011 -0.599854 314.853 156.197)" fill="white"/>
<line x1="312.766" y1="162.77" x2="314.057" y2="162.437" stroke="#343440" stroke-linecap="round"/>
<line x1="0.5" y1="-0.5" x2="1.83258" y2="-0.5" transform="matrix(0.0314172 0.999506 0.999506 -0.0314172 314.812 160.173)" stroke="#343440" stroke-linecap="round"/>
<line x1="314.735" y1="162.574" x2="317.175" y2="164.403" stroke="#343440" stroke-linecap="square"/>
<path d="M926.099 182.713C924.645 184.652 921.982 185.218 919.865 184.038L905.602 176.09C902.021 174.094 901.023 169.398 903.482 166.118V166.118C905.884 162.914 910.527 162.485 913.476 165.193L925.5 176.239C927.333 177.923 927.592 180.721 926.099 182.713V182.713Z" fill="#E5E5EB" stroke="#E5E5EB" stroke-width="6" stroke-linecap="round" stroke-linejoin="round" stroke-dasharray="1 5"/>
<path d="M947.973 153.536C946.519 155.475 943.856 156.041 941.739 154.862L927.476 146.913C923.895 144.917 922.897 140.221 925.356 136.941V136.941C927.758 133.737 932.401 133.308 935.35 136.017L947.374 147.062C949.207 148.746 949.466 151.544 947.973 153.536V153.536Z" fill="#E5E5EB" stroke="#E5E5EB" stroke-width="6" stroke-linecap="round" stroke-linejoin="round" stroke-dasharray="1 5"/>
<path d="M801.987 149.654C801.088 149.055 800.69 147.964 800.911 146.906V146.906C800.996 146.502 801.166 146.123 801.424 145.8C802.572 144.362 806.077 140.212 808.935 139.378C811.133 143.195 810.469 147.939 811.077 152.913C808.158 153.404 804.113 151.069 801.987 149.654Z" fill="#D5D4E2"/>
<path d="M829.617 112.319C828.79 111.623 827.631 111.547 826.678 112.057V112.057C826.313 112.251 825.998 112.521 825.76 112.859C824.701 114.364 821.701 118.891 821.701 121.868C825.982 122.909 830.349 120.941 835.294 120.131C834.946 117.191 831.572 113.963 829.617 112.319Z" fill="#D5D4E2"/>
<rect x="800.188" y="144.862" width="42.8043" height="78.3782" rx="21.4022" transform="rotate(-53.1406 800.188 144.862)" fill="white" stroke="white" stroke-width="6" stroke-linecap="round" stroke-linejoin="round" stroke-dasharray="1 5"/>
<rect x="882.17" y="205.901" width="57.3032" height="104.588" rx="28.6516" transform="rotate(-143.141 882.17 205.901)" fill="white" stroke="white" stroke-width="6" stroke-linecap="round" stroke-linejoin="round" stroke-dasharray="1 5"/>
<path d="M940.922 168.284C939.468 170.223 936.805 170.789 934.688 169.61L920.426 161.661C916.845 159.665 915.846 154.969 918.305 151.689V151.689C920.707 148.485 925.35 148.056 928.299 150.765L940.323 161.81C942.156 163.494 942.415 166.293 940.922 168.284V168.284Z" fill="white" stroke="white" stroke-width="6" stroke-linecap="round" stroke-linejoin="round" stroke-dasharray="1 5"/>
<rect x="817.427" y="146.941" width="25.4512" height="15.907" rx="7.95351" transform="rotate(-53.1406 817.427 146.941)" fill="#D5D4E2"/>
<path d="M832.755 147.227C830.966 145.886 830.603 143.348 831.944 141.559V141.559C833.286 139.769 835.824 139.406 837.613 140.748L840.39 142.83L835.532 149.309L832.755 147.227Z" fill="white"/>
<rect x="820.377" y="147.345" width="8.09812" height="8.09812" rx="4.04906" transform="rotate(-53.1406 820.377 147.345)" fill="white"/>
<rect x="829.181" y="135.624" width="8.09812" height="8.09812" rx="4.04906" transform="rotate(-53.1406 829.181 135.624)" fill="white"/>
<rect x="823.093" y="147.086" width="4.40794" height="4.40794" rx="2.20397" transform="rotate(-53.1406 823.093 147.086)" fill="#343440"/>
<rect width="1.60289" height="1.60289" rx="0.801444" transform="matrix(0.599854 -0.80011 -0.80011 -0.599854 826.539 149.169)" fill="white"/>
<rect x="831.746" y="135.543" width="4.40794" height="4.40794" rx="2.20397" transform="rotate(-53.1406 831.746 135.543)" fill="#343440"/>
<rect width="1.60289" height="1.60289" rx="0.801444" transform="matrix(0.599854 -0.80011 -0.80011 -0.599854 835.192 137.627)" fill="white"/>
<line x1="833.106" y1="144.199" x2="834.396" y2="143.866" stroke="#343440" stroke-linecap="round"/>
<line x1="0.5" y1="-0.5" x2="1.83258" y2="-0.5" transform="matrix(0.0314172 0.999506 0.999506 -0.0314172 835.151 141.603)" stroke="#343440" stroke-linecap="round"/>
<line x1="835.075" y1="144.003" x2="837.515" y2="145.832" stroke="#343440" stroke-linecap="square"/>
<path d="M1157.22 172.106C1158.67 174.045 1161.34 174.612 1163.45 173.432L1177.72 165.483C1181.3 163.488 1182.3 158.792 1179.84 155.512V155.512C1177.43 152.308 1172.79 151.878 1169.84 154.587L1157.82 165.632C1155.99 167.316 1155.73 170.115 1157.22 172.106V172.106Z" fill="#E5E5EB" stroke="#E5E5EB" stroke-width="6" stroke-linecap="round" stroke-linejoin="round" stroke-dasharray="1 5"/>
<path d="M1303.21 168.225C1304.1 167.626 1304.5 166.534 1304.28 165.476V165.476C1304.2 165.072 1304.03 164.693 1303.77 164.37C1302.62 162.932 1299.12 158.783 1296.26 157.949C1294.06 161.766 1294.72 166.509 1294.12 171.484C1297.03 171.974 1301.08 169.64 1303.21 168.225Z" fill="#D5D4E2"/>
<path d="M1275.58 130.889C1276.4 130.193 1277.56 130.117 1278.51 130.627V130.627C1278.88 130.822 1279.19 131.091 1279.43 131.429C1280.49 132.934 1283.49 137.461 1283.49 140.439C1279.21 141.479 1274.84 139.512 1269.9 138.701C1270.25 135.761 1273.62 132.533 1275.58 130.889Z" fill="#D5D4E2"/>
<rect width="42.8043" height="78.3782" rx="21.4022" transform="matrix(-0.599854 -0.80011 -0.80011 0.599854 1305 163.432)" fill="white" stroke="white" stroke-width="6" stroke-linecap="round" stroke-linejoin="round" stroke-dasharray="1 5"/>
<rect width="57.3032" height="104.588" rx="28.6516" transform="matrix(0.80011 -0.599854 -0.599854 -0.80011 1223.02 224.472)" fill="white" stroke="white" stroke-width="6" stroke-linecap="round" stroke-linejoin="round" stroke-dasharray="1 5"/>
<path d="M1164.27 186.854C1165.72 188.793 1168.39 189.36 1170.5 188.18L1184.77 180.232C1188.35 178.236 1189.35 173.54 1186.89 170.26V170.26C1184.49 167.056 1179.84 166.626 1176.89 169.335L1164.87 180.381C1163.04 182.064 1162.78 184.863 1164.27 186.854V186.854Z" fill="white" stroke="white" stroke-width="6" stroke-linecap="round" stroke-linejoin="round" stroke-dasharray="1 5"/>
<rect width="25.4512" height="15.907" rx="7.95351" transform="matrix(-0.599854 -0.80011 -0.80011 0.599854 1287.77 165.511)" fill="#D5D4E2"/>
<path d="M1272.44 165.797C1274.23 164.456 1274.59 161.918 1273.25 160.129V160.129C1271.91 158.34 1269.37 157.977 1267.58 159.318L1264.8 161.4L1269.66 167.879L1272.44 165.797Z" fill="white"/>
<rect width="8.09812" height="8.09812" rx="4.04906" transform="matrix(-0.599854 -0.80011 -0.80011 0.599854 1284.82 165.916)" fill="white"/>
<rect width="8.09812" height="8.09812" rx="4.04906" transform="matrix(-0.599854 -0.80011 -0.80011 0.599854 1276.01 154.194)" fill="white"/>
<rect width="4.40794" height="4.40794" rx="2.20397" transform="matrix(-0.599854 -0.80011 -0.80011 0.599854 1282.1 165.656)" fill="#343440"/>
<rect x="1278.65" y="167.739" width="1.60289" height="1.60289" rx="0.801444" transform="rotate(-126.859 1278.65 167.739)" fill="white"/>
<rect width="4.40794" height="4.40794" rx="2.20397" transform="matrix(-0.599854 -0.80011 -0.80011 0.599854 1273.45 154.114)" fill="#343440"/>
<rect x="1270" y="156.197" width="1.60289" height="1.60289" rx="0.801444" transform="rotate(-126.859 1270 156.197)" fill="white"/>
<line x1="0.5" y1="-0.5" x2="1.83258" y2="-0.5" transform="matrix(-0.968232 -0.250055 -0.250055 0.968232 1272.45 163.379)" stroke="#343440" stroke-linecap="round"/>
<line x1="1270.53" y1="160.688" x2="1270.48" y2="162.02" stroke="#343440" stroke-linecap="round"/>
<line x1="0.5" y1="-0.5" x2="3.54906" y2="-0.5" transform="matrix(-0.80011 0.599854 0.599854 0.80011 1270.82 162.674)" stroke="#343440" stroke-linecap="square"/>
<path d="M525.712 155.738C523.832 154.208 523.371 151.525 524.633 149.456L533.137 135.518C535.273 132.018 540.005 131.206 543.185 133.792V133.792C546.292 136.319 546.538 140.975 543.715 143.815L532.204 155.394C530.45 157.159 527.643 157.308 525.712 155.738V155.738Z" fill="#E5E5EB" stroke="#E5E5EB" stroke-width="6" stroke-linecap="round" stroke-linejoin="round" stroke-dasharray="1 5"/>
<path d="M554.003 178.745C552.123 177.216 551.662 174.532 552.924 172.463L561.428 158.525C563.564 155.026 568.296 154.213 571.476 156.799V156.799C574.583 159.326 574.829 163.982 572.006 166.822L560.495 178.402C558.741 180.167 555.934 180.315 554.003 178.745V178.745Z" fill="#E5E5EB" stroke="#E5E5EB" stroke-width="6" stroke-linecap="round" stroke-linejoin="round" stroke-dasharray="1 5"/>
<path d="M563.637 33.0258C564.271 32.1504 565.377 31.7959 566.425 32.0592V32.0592C566.826 32.1599 567.198 32.3446 567.51 32.6149C568.902 33.8187 572.91 37.4842 573.631 40.3729C569.73 42.4195 565.017 41.5687 560.022 41.9804C559.647 39.0436 562.139 35.0944 563.637 33.0258Z" fill="#D5D4E2"/>
<path d="M599.854 62.1059C600.582 61.3069 600.703 60.1516 600.232 59.1791V59.1791C600.052 58.8072 599.795 58.481 599.467 58.2301C598.004 57.1126 593.599 53.9363 590.624 53.8194C589.415 58.0557 591.209 62.4967 591.824 67.4703C594.776 67.2388 598.134 63.9941 599.854 62.1059Z" fill="#D5D4E2"/>
<rect x="568.497" y="31.4175" width="42.8043" height="78.3782" rx="21.4022" transform="rotate(39.1187 568.497 31.4175)" fill="white" stroke="white" stroke-width="6" stroke-linecap="round" stroke-linejoin="round" stroke-dasharray="1 5"/>
<rect x="504.272" y="110.928" width="57.3032" height="104.588" rx="28.6516" transform="rotate(-50.8813 504.272 110.928)" fill="white" stroke="white" stroke-width="6" stroke-linecap="round" stroke-linejoin="round" stroke-dasharray="1 5"/>
<path d="M510.32 147.353C508.44 145.824 507.979 143.14 509.241 141.071L517.746 127.133C519.881 123.633 524.613 122.821 527.794 125.407V125.407C530.9 127.934 531.146 132.59 528.323 135.43L516.813 147.01C515.058 148.775 512.251 148.923 510.32 147.353V147.353Z" fill="white" stroke="white" stroke-width="6" stroke-linecap="round" stroke-linejoin="round" stroke-dasharray="1 5"/>
<path d="M539.545 171.119C537.665 169.59 537.204 166.906 538.466 164.837L546.97 150.899C549.106 147.4 553.838 146.587 557.018 149.174V149.174C560.125 151.7 560.371 156.356 557.548 159.196L546.037 170.776C544.283 172.541 541.476 172.689 539.545 171.119V171.119Z" fill="white" stroke="white" stroke-width="6" stroke-linecap="round" stroke-linejoin="round" stroke-dasharray="1 5"/>
<rect x="565.739" y="48.5601" width="25.4512" height="15.907" rx="7.95351" transform="rotate(39.1187 565.739 48.5601)" fill="#D5D4E2"/>
<path d="M564.849 63.8655C566.26 62.1306 568.81 61.8679 570.545 63.2788V63.2788C572.28 64.6897 572.542 67.2399 571.131 68.9749L568.942 71.6675L562.659 66.5582L564.849 63.8655Z" fill="white"/>
<rect x="565.219" y="51.4917" width="8.09812" height="8.09812" rx="4.04906" transform="rotate(39.1187 565.219 51.4917)" fill="white"/>
<rect x="576.584" y="60.7515" width="8.09812" height="8.09812" rx="4.04906" transform="rotate(39.1187 576.584 60.7515)" fill="white"/>
<rect x="565.371" y="54.2153" width="4.40794" height="4.40794" rx="2.20397" transform="rotate(39.1187 565.371 54.2153)" fill="#343440"/>
<rect width="1.60289" height="1.60289" rx="0.801444" transform="matrix(0.77584 0.630929 0.630929 -0.77584 563.153 57.5771)" fill="white"/>
<rect x="576.563" y="63.3174" width="4.40794" height="4.40794" rx="2.20397" transform="rotate(39.1187 576.563 63.3174)" fill="#343440"/>
<rect width="1.60289" height="1.60289" rx="0.801444" transform="matrix(0.77584 0.630929 0.630929 -0.77584 574.346 66.6792)" fill="white"/>
<line x1="567.86" y1="64.3359" x2="568.142" y2="65.6383" stroke="#343440" stroke-linecap="round"/>
<line x1="0.5" y1="-0.5" x2="1.83258" y2="-0.5" transform="matrix(-0.999968 -0.0080093 -0.0080093 0.999968 570.375 66.481)" stroke="#343440" stroke-linecap="round"/>
<line x1="567.979" y1="66.3098" x2="566.055" y2="68.6754" stroke="#343440" stroke-linecap="square"/>
<path d="M934.836 175.62C932.956 174.091 932.495 171.408 933.757 169.339L942.261 155.401C944.397 151.901 949.129 151.088 952.309 153.675V153.675C955.416 156.201 955.662 160.858 952.839 163.698L941.328 175.277C939.574 177.042 936.767 177.191 934.836 175.62V175.62Z" fill="#E5E5EB" stroke="#E5E5EB" stroke-width="6" stroke-linecap="round" stroke-linejoin="round" stroke-dasharray="1 5"/>
<path d="M963.127 198.628C961.247 197.099 960.786 194.415 962.048 192.346L970.553 178.408C972.688 174.908 977.42 174.096 980.6 176.682V176.682C983.707 179.209 983.953 183.865 981.13 186.705L969.619 198.285C967.865 200.05 965.058 200.198 963.127 198.628V198.628Z" fill="#E5E5EB" stroke="#E5E5EB" stroke-width="6" stroke-linecap="round" stroke-linejoin="round" stroke-dasharray="1 5"/>
<path d="M972.761 52.9086C973.395 52.0332 974.501 51.6787 975.549 51.942V51.942C975.95 52.0427 976.322 52.2274 976.634 52.4978C978.026 53.7015 982.034 57.367 982.755 60.2557C978.854 62.3023 974.141 61.4515 969.146 61.8632C968.771 58.9264 971.263 54.9772 972.761 52.9086Z" fill="#D5D4E2"/>
<path d="M1008.98 81.9887C1009.71 81.1897 1009.83 80.0344 1009.36 79.0619V79.0619C1009.18 78.69 1008.92 78.3639 1008.59 78.1129C1007.13 76.9955 1002.72 73.8191 999.748 73.7022C998.539 77.9385 1000.33 82.3795 1000.95 87.3531C1003.9 87.1217 1007.26 83.8769 1008.98 81.9887Z" fill="#D5D4E2"/>
<rect x="977.621" y="51.3003" width="42.8043" height="78.3782" rx="21.4022" transform="rotate(39.1187 977.621 51.3003)" fill="white" stroke="white" stroke-width="6" stroke-linecap="round" stroke-linejoin="round" stroke-dasharray="1 5"/>
<rect x="913.396" y="130.811" width="57.3032" height="104.588" rx="28.6516" transform="rotate(-50.8813 913.396 130.811)" fill="white" stroke="white" stroke-width="6" stroke-linecap="round" stroke-linejoin="round" stroke-dasharray="1 5"/>
<path d="M919.444 167.236C917.564 165.706 917.103 163.023 918.365 160.954L926.87 147.016C929.005 143.516 933.737 142.704 936.918 145.29V145.29C940.024 147.817 940.27 152.473 937.448 155.313L925.937 166.892C924.182 168.658 921.375 168.806 919.444 167.236V167.236Z" fill="white" stroke="white" stroke-width="6" stroke-linecap="round" stroke-linejoin="round" stroke-dasharray="1 5"/>
<path d="M948.669 191.002C946.789 189.473 946.328 186.789 947.59 184.72L956.095 170.782C958.23 167.282 962.962 166.47 966.142 169.056V169.056C969.249 171.583 969.495 176.239 966.672 179.079L955.161 190.659C953.407 192.424 950.6 192.572 948.669 191.002V191.002Z" fill="white" stroke="white" stroke-width="6" stroke-linecap="round" stroke-linejoin="round" stroke-dasharray="1 5"/>
<rect x="974.863" y="68.4429" width="25.4512" height="15.907" rx="7.95351" transform="rotate(39.1187 974.863 68.4429)" fill="#D5D4E2"/>
<path d="M973.973 83.7484C975.384 82.0134 977.934 81.7507 979.669 83.1616V83.1616C981.404 84.5725 981.666 87.1227 980.256 88.8577L978.066 91.5503L971.783 86.441L973.973 83.7484Z" fill="white"/>
<rect x="974.343" y="71.3745" width="8.09812" height="8.09812" rx="4.04906" transform="rotate(39.1187 974.343 71.3745)" fill="white"/>
<rect x="985.708" y="80.6343" width="8.09812" height="8.09812" rx="4.04906" transform="rotate(39.1187 985.708 80.6343)" fill="white"/>
<rect x="974.495" y="74.0981" width="4.40794" height="4.40794" rx="2.20397" transform="rotate(39.1187 974.495 74.0981)" fill="#343440"/>
<rect width="1.60289" height="1.60289" rx="0.801444" transform="matrix(0.77584 0.630929 0.630929 -0.77584 972.277 77.46)" fill="white"/>
<rect x="985.688" y="83.2002" width="4.40794" height="4.40794" rx="2.20397" transform="rotate(39.1187 985.688 83.2002)" fill="#343440"/>
<rect width="1.60289" height="1.60289" rx="0.801444" transform="matrix(0.77584 0.630929 0.630929 -0.77584 983.47 86.562)" fill="white"/>
<line x1="976.984" y1="84.2188" x2="977.266" y2="85.5211" stroke="#343440" stroke-linecap="round"/>
<line x1="0.5" y1="-0.5" x2="1.83258" y2="-0.5" transform="matrix(-0.999968 -0.0080093 -0.0080093 0.999968 979.499 86.3638)" stroke="#343440" stroke-linecap="round"/>
<line x1="977.103" y1="86.1926" x2="975.179" y2="88.5582" stroke="#343440" stroke-linecap="square"/>
<path d="M427.198 130.62C429.079 129.091 429.54 126.408 428.277 124.339L419.773 110.401C417.637 106.901 412.906 106.088 409.725 108.675V108.675C406.618 111.201 406.372 115.858 409.195 118.698L420.706 130.277C422.461 132.042 425.267 132.191 427.198 130.62V130.62Z" fill="#E5E5EB" stroke="#E5E5EB" stroke-width="6" stroke-linecap="round" stroke-linejoin="round" stroke-dasharray="1 5"/>
<path d="M398.907 153.628C400.788 152.099 401.249 149.415 399.986 147.346L391.482 133.408C389.346 129.908 384.615 129.096 381.434 131.682V131.682C378.327 134.209 378.081 138.865 380.904 141.705L392.415 153.285C394.17 155.05 396.976 155.198 398.907 153.628V153.628Z" fill="#E5E5EB" stroke="#E5E5EB" stroke-width="6" stroke-linecap="round" stroke-linejoin="round" stroke-dasharray="1 5"/>
<path d="M389.273 7.90861C388.639 7.03325 387.533 6.67868 386.485 6.94201V6.94201C386.084 7.04272 385.713 7.2274 385.4 7.49775C384.008 8.7015 380 12.367 379.279 15.2557C383.18 17.3023 387.894 16.4515 392.888 16.8632C393.263 13.9264 390.771 9.9772 389.273 7.90861Z" fill="#D5D4E2"/>
<path d="M353.056 36.9887C352.328 36.1897 352.207 35.0344 352.678 34.0619V34.0619C352.859 33.69 353.115 33.3639 353.444 33.1129C354.906 31.9955 359.311 28.8191 362.286 28.7022C363.495 32.9385 361.701 37.3795 361.086 42.3531C358.134 42.1217 354.776 38.8769 353.056 36.9887Z" fill="#D5D4E2"/>
<rect width="42.8043" height="78.3782" rx="21.4022" transform="matrix(-0.77584 0.630929 0.630929 0.77584 384.413 6.30029)" fill="white" stroke="white" stroke-width="6" stroke-linecap="round" stroke-linejoin="round" stroke-dasharray="1 5"/>
<rect width="57.3032" height="104.588" rx="28.6516" transform="matrix(-0.630929 -0.77584 -0.77584 0.630929 448.638 85.811)" fill="white" stroke="white" stroke-width="6" stroke-linecap="round" stroke-linejoin="round" stroke-dasharray="1 5"/>
<path d="M442.59 122.236C444.47 120.706 444.931 118.023 443.669 115.954L435.164 102.016C433.029 98.5163 428.297 97.7036 425.116 100.29V100.29C422.01 102.817 421.764 107.473 424.587 110.313L436.098 121.892C437.852 123.658 440.659 123.806 442.59 122.236V122.236Z" fill="white" stroke="white" stroke-width="6" stroke-linecap="round" stroke-linejoin="round" stroke-dasharray="1 5"/>
<path d="M413.365 146.002C415.246 144.473 415.707 141.789 414.444 139.72L405.94 125.782C403.804 122.282 399.073 121.47 395.892 124.056V124.056C392.785 126.583 392.539 131.239 395.362 134.079L406.873 145.659C408.628 147.424 411.434 147.572 413.365 146.002V146.002Z" fill="white" stroke="white" stroke-width="6" stroke-linecap="round" stroke-linejoin="round" stroke-dasharray="1 5"/>
<rect width="25.4512" height="15.907" rx="7.95351" transform="matrix(-0.77584 0.630929 0.630929 0.77584 387.171 23.4429)" fill="#D5D4E2"/>
<path d="M388.062 38.7484C386.651 37.0134 384.1 36.7507 382.365 38.1616V38.1616C380.63 39.5725 380.368 42.1227 381.779 43.8577L383.968 46.5503L390.251 41.441L388.062 38.7484Z" fill="white"/>
<rect width="8.09812" height="8.09812" rx="4.04906" transform="matrix(-0.77584 0.630929 0.630929 0.77584 387.691 26.3745)" fill="white"/>
<rect width="8.09812" height="8.09812" rx="4.04906" transform="matrix(-0.77584 0.630929 0.630929 0.77584 376.326 35.6343)" fill="white"/>
<rect width="4.40794" height="4.40794" rx="2.20397" transform="matrix(-0.77584 0.630929 0.630929 0.77584 387.539 29.0981)" fill="#343440"/>
<rect x="389.757" y="32.46" width="1.60289" height="1.60289" rx="0.801444" transform="rotate(140.881 389.757 32.46)" fill="white"/>
<rect width="4.40794" height="4.40794" rx="2.20397" transform="matrix(-0.77584 0.630929 0.630929 0.77584 376.347 38.2002)" fill="#343440"/>
<rect x="378.564" y="41.562" width="1.60289" height="1.60289" rx="0.801444" transform="rotate(140.881 378.564 41.562)" fill="white"/>
<line x1="0.5" y1="-0.5" x2="1.83258" y2="-0.5" transform="matrix(-0.211691 0.977337 0.977337 0.211691 385.645 38.8359)" stroke="#343440" stroke-linecap="round"/>
<line x1="383.031" y1="40.8598" x2="384.364" y2="40.8491" stroke="#343440" stroke-linecap="round"/>
<line x1="0.5" y1="-0.5" x2="3.54906" y2="-0.5" transform="matrix(0.630929 0.77584 0.77584 -0.630929 385.004 40.4893)" stroke="#343440" stroke-linecap="square"/>
<path d="M115.121 200.536C112.765 201.107 110.351 199.849 109.469 197.591L103.526 182.383C102.034 178.565 104.253 174.307 108.237 173.342V173.342C112.129 172.399 115.984 175.023 116.534 178.989L118.779 195.162C119.121 197.627 117.54 199.95 115.121 200.536V200.536Z" fill="#E5E5EB" stroke="#E5E5EB" stroke-width="6" stroke-linecap="round" stroke-linejoin="round" stroke-dasharray="1 5"/>
<path d="M4.98854 104.631C4.67575 103.597 5.06346 102.502 5.90776 101.827V101.827C6.23065 101.569 6.60262 101.385 7.0071 101.3C8.808 100.921 14.1519 99.9511 16.8873 101.127C16.1538 105.47 12.6226 108.706 9.92579 112.93C7.36158 111.45 5.7277 107.076 4.98854 104.631Z" fill="#D5D4E2"/>
<path d="M50.062 93.4181C49.8668 92.3551 49.0211 91.5587 47.9616 91.345V91.345C47.5564 91.2633 47.1416 91.27 46.743 91.3794C44.9683 91.8664 39.7727 93.449 37.8783 95.7458C40.5178 99.2727 45.1383 100.534 49.4689 103.057C51.0719 100.567 50.5233 95.9301 50.062 93.4181Z" fill="#D5D4E2"/>
<rect x="6.65137" y="99.7896" width="42.8043" height="78.3782" rx="21.4022" transform="rotate(-13.6137 6.65137 99.7896)" fill="white" stroke="white" stroke-width="6" stroke-linecap="round" stroke-linejoin="round" stroke-dasharray="1 5"/>
<rect x="31.0371" y="199.047" width="57.3032" height="104.588" rx="28.6516" transform="rotate(-103.614 31.0371 199.047)" fill="white" stroke="white" stroke-width="6" stroke-linecap="round" stroke-linejoin="round" stroke-dasharray="1 5"/>
<rect x="18.624" y="112.364" width="25.4512" height="15.907" rx="7.95351" transform="rotate(-13.6137 18.624 112.364)" fill="#D5D4E2"/>
<path d="M30.2655 122.341C29.7392 120.168 31.0744 117.979 33.2478 117.453V117.453C35.4212 116.926 37.6098 118.262 38.1361 120.435L38.953 123.808L31.0824 125.714L30.2655 122.341Z" fill="white"/>
<rect x="20.6416" y="114.554" width="8.09812" height="8.09812" rx="4.04906" transform="rotate(-13.6137 20.6416 114.554)" fill="white"/>
<rect x="34.8926" y="111.116" width="8.09812" height="8.09812" rx="4.04906" transform="rotate(-13.6137 34.8926 111.116)" fill="white"/>
<rect x="22.9014" y="116.082" width="4.40794" height="4.40794" rx="2.20397" transform="rotate(-13.6137 22.9014 116.082)" fill="#343440"/>
<rect width="1.60289" height="1.60289" rx="0.801444" transform="matrix(0.971905 -0.235374 -0.235374 -0.971905 24.2344 119.882)" fill="white"/>
<rect x="36.9229" y="112.687" width="4.40794" height="4.40794" rx="2.20397" transform="rotate(-13.6137 36.9229 112.687)" fill="#343440"/>
<rect width="1.60289" height="1.60289" rx="0.801444" transform="matrix(0.971905 -0.235374 -0.235374 -0.971905 38.2549 116.487)" fill="white"/>
<line x1="32.4625" y1="120.229" x2="33.6698" y2="120.793" stroke="#343440" stroke-linecap="round"/>
<line x1="0.5" y1="-0.5" x2="1.83258" y2="-0.5" transform="matrix(-0.611893 0.79094 0.79094 0.611893 35.6934 119.527)" stroke="#343440" stroke-linecap="round"/>
<line x1="34.1056" y1="121.33" x2="34.8233" y2="124.294" stroke="#343440" stroke-linecap="square"/>
<path d="M1469.73 200.536C1472.09 201.107 1474.5 199.849 1475.38 197.591L1481.33 182.383C1482.82 178.565 1480.6 174.307 1476.62 173.342V173.342C1472.72 172.399 1468.87 175.023 1468.32 178.989L1466.07 195.162C1465.73 197.627 1467.31 199.95 1469.73 200.536V200.536Z" fill="#E5E5EB" stroke="#E5E5EB" stroke-width="6" stroke-linecap="round" stroke-linejoin="round" stroke-dasharray="1 5"/>
<path d="M1579.86 104.631C1580.18 103.597 1579.79 102.502 1578.94 101.827V101.827C1578.62 101.569 1578.25 101.385 1577.85 101.3C1576.04 100.921 1570.7 99.9511 1567.97 101.127C1568.7 105.47 1572.23 108.706 1574.93 112.93C1577.49 111.45 1579.12 107.076 1579.86 104.631Z" fill="#D5D4E2"/>
<path d="M1534.79 93.4181C1534.99 92.3551 1535.83 91.5587 1536.89 91.345V91.345C1537.3 91.2633 1537.71 91.27 1538.11 91.3794C1539.88 91.8664 1545.08 93.449 1546.97 95.7458C1544.33 99.2727 1539.71 100.534 1535.38 103.057C1533.78 100.567 1534.33 95.9301 1534.79 93.4181Z" fill="#D5D4E2"/>
<rect width="42.8043" height="78.3782" rx="21.4022" transform="matrix(-0.971905 -0.235374 -0.235374 0.971905 1578.2 99.7896)" fill="white" stroke="white" stroke-width="6" stroke-linecap="round" stroke-linejoin="round" stroke-dasharray="1 5"/>
<rect width="57.3032" height="104.588" rx="28.6516" transform="matrix(0.235374 -0.971905 -0.971905 -0.235374 1553.82 199.047)" fill="white" stroke="white" stroke-width="6" stroke-linecap="round" stroke-linejoin="round" stroke-dasharray="1 5"/>
<rect width="25.4512" height="15.907" rx="7.95351" transform="matrix(-0.971905 -0.235374 -0.235374 0.971905 1566.23 112.364)" fill="#D5D4E2"/>
<path d="M1554.59 122.341C1555.11 120.168 1553.78 117.979 1551.6 117.453V117.453C1549.43 116.926 1547.24 118.262 1546.72 120.435L1545.9 123.808L1553.77 125.714L1554.59 122.341Z" fill="white"/>
<rect width="8.09812" height="8.09812" rx="4.04906" transform="matrix(-0.971905 -0.235374 -0.235374 0.971905 1564.21 114.554)" fill="white"/>
<rect width="8.09812" height="8.09812" rx="4.04906" transform="matrix(-0.971905 -0.235374 -0.235374 0.971905 1549.96 111.116)" fill="white"/>
<rect width="4.40794" height="4.40794" rx="2.20397" transform="matrix(-0.971905 -0.235374 -0.235374 0.971905 1561.95 116.082)" fill="#343440"/>
<rect x="1560.62" y="119.882" width="1.60289" height="1.60289" rx="0.801444" transform="rotate(-166.386 1560.62 119.882)" fill="white"/>
<rect width="4.40794" height="4.40794" rx="2.20397" transform="matrix(-0.971905 -0.235374 -0.235374 0.971905 1547.93 112.687)" fill="#343440"/>
<rect x="1546.6" y="116.487" width="1.60289" height="1.60289" rx="0.801444" transform="rotate(-166.386 1546.6 116.487)" fill="white"/>
<line x1="0.5" y1="-0.5" x2="1.83258" y2="-0.5" transform="matrix(-0.905967 0.423348 0.423348 0.905967 1553.05 120.47)" stroke="#343440" stroke-linecap="round"/>
<line x1="1549.86" y1="119.617" x2="1550.68" y2="120.671" stroke="#343440" stroke-linecap="round"/>
<line x1="0.5" y1="-0.5" x2="3.54906" y2="-0.5" transform="matrix(-0.235374 0.971905 0.971905 0.235374 1551.35 120.962)" stroke="#343440" stroke-linecap="square"/>
<path d="M1654.95 191.507C1657 190.216 1657.78 187.608 1656.78 185.401L1650.02 170.538C1648.33 166.806 1643.73 165.427 1640.26 167.61V167.61C1636.87 169.743 1636.06 174.335 1638.52 177.495L1648.55 190.381C1650.08 192.346 1652.84 192.832 1654.95 191.507V191.507Z" fill="#E5E5EB" stroke="#E5E5EB" stroke-width="6" stroke-linecap="round" stroke-linejoin="round" stroke-dasharray="1 5"/>
<path d="M1632.13 65.1113C1631.61 64.1658 1630.56 63.6801 1629.48 63.8148V63.8148C1629.07 63.8663 1628.68 64.0047 1628.34 64.2353C1626.81 65.262 1622.39 68.4163 1621.33 71.1967C1624.95 73.6997 1629.73 73.4248 1634.64 74.4371C1635.37 71.5673 1633.37 67.3458 1632.13 65.1113Z" fill="#D5D4E2"/>
<path d="M1592.67 89.6007C1592.04 88.7196 1592.06 87.558 1592.65 86.6496V86.6496C1592.87 86.3022 1593.17 86.0095 1593.52 85.8C1595.11 84.8675 1599.87 82.2469 1602.83 82.4905C1603.52 86.8417 1601.2 91.0334 1599.99 95.8962C1597.09 95.3097 1594.15 91.6829 1592.67 89.6007Z" fill="#D5D4E2"/>
<rect width="42.8043" height="78.3782" rx="21.4022" transform="matrix(-0.846407 0.532536 0.532536 0.846407 1627.5 62.9272)" fill="white" stroke="white" stroke-width="6" stroke-linecap="round" stroke-linejoin="round" stroke-dasharray="1 5"/>
<rect width="57.3032" height="104.588" rx="28.6516" transform="matrix(-0.532536 -0.846407 -0.846407 0.532536 1681.65 149.617)" fill="white" stroke="white" stroke-width="6" stroke-linecap="round" stroke-linejoin="round" stroke-dasharray="1 5"/>
<path d="M1671.24 185.044C1673.29 183.754 1674.08 181.145 1673.07 178.939L1666.31 164.075C1664.62 160.343 1660.02 158.965 1656.55 161.148V161.148C1653.16 163.28 1652.35 167.873 1654.81 171.033L1664.84 183.919C1666.37 185.883 1669.14 186.37 1671.24 185.044V185.044Z" fill="white" stroke="white" stroke-width="6" stroke-linecap="round" stroke-linejoin="round" stroke-dasharray="1 5"/>
<rect width="25.4512" height="15.907" rx="7.95351" transform="matrix(-0.846407 0.532536 0.532536 0.846407 1628.17 80.2773)" fill="#D5D4E2"/>
<path d="M1627.2 95.5785C1626.01 93.6858 1623.51 93.1168 1621.62 94.3076V94.3076C1619.73 95.4985 1619.16 97.9983 1620.35 99.8911L1622.2 102.829L1629.05 98.5161L1627.2 95.5785Z" fill="white"/>
<rect width="8.09812" height="8.09812" rx="4.04906" transform="matrix(-0.846407 0.532536 0.532536 0.846407 1628.33 83.2505)" fill="white"/>
<rect width="8.09812" height="8.09812" rx="4.04906" transform="matrix(-0.846407 0.532536 0.532536 0.846407 1615.93 91.0684)" fill="white"/>
<rect width="4.40794" height="4.40794" rx="2.20397" transform="matrix(-0.846407 0.532536 0.532536 0.846407 1627.85 85.936)" fill="#343440"/>
<rect x="1629.65" y="89.541" width="1.60289" height="1.60289" rx="0.801444" transform="rotate(147.823 1629.65 89.541)" fill="white"/>
<rect width="4.40794" height="4.40794" rx="2.20397" transform="matrix(-0.846407 0.532536 0.532536 0.846407 1615.64 93.6182)" fill="#343440"/>
<rect x="1617.44" y="97.2231" width="1.60289" height="1.60289" rx="0.801444" transform="rotate(147.823 1617.44 97.2231)" fill="white"/>
<line x1="0.5" y1="-0.5" x2="1.83258" y2="-0.5" transform="matrix(-0.32826 0.944587 0.944587 0.32826 1624.79 95.373)" stroke="#343440" stroke-linecap="round"/>
<line x1="1621.96" y1="97.0665" x2="1623.28" y2="97.2169" stroke="#343440" stroke-linecap="round"/>
<line x1="0.5" y1="-0.5" x2="3.54906" y2="-0.5" transform="matrix(0.532536 0.846407 0.846407 -0.532536 1623.96 96.937)" stroke="#343440" stroke-linecap="square"/>
<path d="M150.318 105.496C150.257 104.417 150.892 103.444 151.871 102.987V102.987C152.246 102.812 152.651 102.721 153.064 102.733C154.903 102.789 160.325 103.104 162.707 104.89C160.972 108.939 156.778 111.253 153.163 114.724C151.019 112.682 150.461 108.046 150.318 105.496Z" fill="#D5D4E2"/>
<path d="M196.764 105.207C196.825 104.128 196.19 103.154 195.211 102.697V102.697C194.836 102.523 194.432 102.432 194.018 102.444C192.179 102.5 186.757 102.815 184.375 104.601C186.11 108.65 190.304 110.964 193.919 114.435C196.063 112.393 196.621 107.757 196.764 105.207Z" fill="#D5D4E2"/>
<rect x="153.073" y="101.182" width="42.8043" height="78.3782" rx="21.4022" fill="white" stroke="white" stroke-width="6" stroke-linecap="round" stroke-linejoin="round" stroke-dasharray="1 5"/>
<rect x="153.411" y="203.39" width="57.3032" height="104.588" rx="28.6516" transform="rotate(-90 153.411 203.39)" fill="white" stroke="white" stroke-width="6" stroke-linecap="round" stroke-linejoin="round" stroke-dasharray="1 5"/>
<rect x="161.75" y="116.221" width="25.4512" height="15.907" rx="7.95351" fill="#D5D4E2"/>
<path d="M170.716 128.657C170.716 126.421 172.529 124.608 174.765 124.608V124.608C177.001 124.608 178.814 126.421 178.814 128.657V132.128H170.716V128.657Z" fill="white"/>
<rect x="163.196" y="118.824" width="8.09812" height="8.09812" rx="4.04906" fill="white"/>
<rect x="177.855" y="118.837" width="8.09812" height="8.09812" rx="4.04906" fill="white"/>
<rect x="165.032" y="120.841" width="4.40794" height="4.40794" rx="2.20397" fill="#343440"/>
<rect width="1.60289" height="1.60289" rx="0.801444" transform="matrix(1 0 0 -1 165.434 124.848)" fill="white"/>
<rect x="179.458" y="120.841" width="4.40794" height="4.40794" rx="2.20397" fill="#343440"/>
<rect width="1.60289" height="1.60289" rx="0.801444" transform="matrix(1 0 0 -1 179.859 124.848)" fill="white"/>
<line x1="173.349" y1="127.122" x2="174.39" y2="127.954" stroke="#343440" stroke-linecap="round"/>
<line x1="0.5" y1="-0.5" x2="1.83258" y2="-0.5" transform="matrix(-0.780869 0.624695 0.624695 0.780869 176.653 127.2)" stroke="#343440" stroke-linecap="round"/>
<line x1="174.687" y1="128.579" x2="174.687" y2="131.628" stroke="#343440" stroke-linecap="square"/>
<path d="M1434.53 105.496C1434.6 104.417 1433.96 103.444 1432.98 102.987V102.987C1432.61 102.812 1432.2 102.721 1431.79 102.733C1429.95 102.789 1424.53 103.104 1422.15 104.89C1423.88 108.939 1428.07 111.253 1431.69 114.724C1433.83 112.682 1434.39 108.046 1434.53 105.496Z" fill="#D5D4E2"/>
<path d="M1388.09 105.207C1388.03 104.128 1388.66 103.154 1389.64 102.697V102.697C1390.02 102.523 1390.42 102.432 1390.83 102.444C1392.67 102.5 1398.1 102.815 1400.48 104.601C1398.74 108.65 1394.55 110.964 1390.93 114.435C1388.79 112.393 1388.23 107.757 1388.09 105.207Z" fill="#D5D4E2"/>
<rect width="42.8043" height="78.3782" rx="21.4022" transform="matrix(-1 0 0 1 1431.78 101.182)" fill="white" stroke="white" stroke-width="6" stroke-linecap="round" stroke-linejoin="round" stroke-dasharray="1 5"/>
<rect width="57.3032" height="104.588" rx="28.6516" transform="matrix(4.37114e-08 -1 -1 -4.37114e-08 1431.44 203.39)" fill="white" stroke="white" stroke-width="6" stroke-linecap="round" stroke-linejoin="round" stroke-dasharray="1 5"/>
<rect width="25.4512" height="15.907" rx="7.95351" transform="matrix(-1 0 0 1 1423.1 116.221)" fill="#D5D4E2"/>
<path d="M1414.14 128.657C1414.14 126.421 1412.32 124.608 1410.09 124.608V124.608C1407.85 124.608 1406.04 126.421 1406.04 128.657V132.128H1414.14V128.657Z" fill="white"/>
<rect width="8.09812" height="8.09812" rx="4.04906" transform="matrix(-1 0 0 1 1421.66 118.824)" fill="white"/>
<rect width="8.09812" height="8.09812" rx="4.04906" transform="matrix(-1 0 0 1 1407 118.837)" fill="white"/>
<rect width="4.40794" height="4.40794" rx="2.20397" transform="matrix(-1 0 0 1 1419.82 120.841)" fill="#343440"/>
<rect x="1419.42" y="124.848" width="1.60289" height="1.60289" rx="0.801444" transform="rotate(180 1419.42 124.848)" fill="white"/>
<rect width="4.40794" height="4.40794" rx="2.20397" transform="matrix(-1 0 0 1 1405.39 120.841)" fill="#343440"/>
<rect x="1404.99" y="124.848" width="1.60289" height="1.60289" rx="0.801444" transform="rotate(180 1404.99 124.848)" fill="white"/>
<line x1="0.5" y1="-0.5" x2="1.83258" y2="-0.5" transform="matrix(-0.780869 0.624695 0.624695 0.780869 1412.21 127.2)" stroke="#343440" stroke-linecap="round"/>
<line x1="1408.9" y1="127.122" x2="1409.94" y2="127.954" stroke="#343440" stroke-linecap="round"/>
<line x1="0.5" y1="-0.5" x2="3.54906" y2="-0.5" transform="matrix(0 1 1 0 1410.67 128.079)" stroke="#343440" stroke-linecap="square"/>
<path d="M457.586 126.118C457.494 125.041 458.1 124.05 459.065 123.564V123.564C459.434 123.379 459.836 123.276 460.25 123.276C462.09 123.278 467.519 123.434 469.952 125.15C468.336 129.248 464.212 131.684 460.7 135.259C458.497 133.281 457.803 128.663 457.586 126.118Z" fill="#D5D4E2"/>
<path d="M504.003 124.469C504.032 123.389 503.369 122.435 502.377 122.007V122.007C501.997 121.843 501.59 121.764 501.177 121.788C499.34 121.898 493.93 122.372 491.601 124.227C493.454 128.224 497.714 130.414 501.429 133.777C503.512 131.673 503.935 127.023 504.003 124.469Z" fill="#D5D4E2"/>
<rect x="460.214" y="121.725" width="42.8043" height="78.3782" rx="21.4022" transform="rotate(-1.6774 460.214 121.725)" fill="white" stroke="white" stroke-width="6" stroke-linecap="round" stroke-linejoin="round" stroke-dasharray="1 5"/>
<rect x="463.544" y="223.88" width="57.3032" height="104.588" rx="28.6516" transform="rotate(-91.6774 463.544 223.88)" fill="white" stroke="white" stroke-width="6" stroke-linecap="round" stroke-linejoin="round" stroke-dasharray="1 5"/>
<rect x="469.327" y="136.504" width="25.4512" height="15.907" rx="7.95351" transform="rotate(-1.6774 469.327 136.504)" fill="#D5D4E2"/>
<path d="M478.653 148.673C478.587 146.438 480.346 144.572 482.582 144.507V144.507C484.817 144.442 486.682 146.2 486.747 148.436L486.849 151.905L478.754 152.142L478.653 148.673Z" fill="white"/>
<rect x="470.849" y="139.063" width="8.09812" height="8.09812" rx="4.04906" transform="rotate(-1.6774 470.849 139.063)" fill="white"/>
<rect x="485.502" y="138.647" width="8.09812" height="8.09812" rx="4.04906" transform="rotate(-1.6774 485.502 138.647)" fill="white"/>
<rect x="472.743" y="141.026" width="4.40794" height="4.40794" rx="2.20397" transform="rotate(-1.6774 472.743 141.026)" fill="#343440"/>
<rect width="1.60289" height="1.60289" rx="0.801444" transform="matrix(0.999571 -0.0292719 -0.0292719 -0.999571 473.262 145.02)" fill="white"/>
<rect x="487.163" y="140.604" width="4.40794" height="4.40794" rx="2.20397" transform="rotate(-1.6774 487.163 140.604)" fill="#343440"/>
<rect width="1.60289" height="1.60289" rx="0.801444" transform="matrix(0.999571 -0.0292719 -0.0292719 -0.999571 487.681 144.598)" fill="white"/>
<line x1="481.24" y1="147.061" x2="482.305" y2="147.863" stroke="#343440" stroke-linecap="round"/>
<line x1="0.5" y1="-0.5" x2="1.83258" y2="-0.5" transform="matrix(-0.762248 0.647285 0.647285 0.762248 484.546 147.042)" stroke="#343440" stroke-linecap="round"/>
<line x1="482.62" y1="148.478" x2="482.709" y2="151.526" stroke="#343440" stroke-linecap="square"/>
<path d="M1127.27 126.118C1127.36 125.041 1126.75 124.05 1125.79 123.564V123.564C1125.42 123.379 1125.02 123.276 1124.6 123.276C1122.76 123.278 1117.33 123.434 1114.9 125.15C1116.52 129.248 1120.64 131.684 1124.15 135.259C1126.36 133.281 1127.05 128.663 1127.27 126.118Z" fill="#D5D4E2"/>
<path d="M1080.85 124.469C1080.82 123.389 1081.48 122.435 1082.48 122.007V122.007C1082.86 121.843 1083.26 121.764 1083.68 121.788C1085.51 121.898 1090.92 122.372 1093.25 124.227C1091.4 128.224 1087.14 130.414 1083.42 133.777C1081.34 131.673 1080.92 127.023 1080.85 124.469Z" fill="#D5D4E2"/>
<rect width="42.8043" height="78.3782" rx="21.4022" transform="matrix(-0.999571 -0.0292719 -0.0292719 0.999571 1124.64 121.725)" fill="white" stroke="white" stroke-width="6" stroke-linecap="round" stroke-linejoin="round" stroke-dasharray="1 5"/>
<rect width="57.3032" height="104.588" rx="28.6516" transform="matrix(0.0292719 -0.999571 -0.999571 -0.0292719 1121.31 223.88)" fill="white" stroke="white" stroke-width="6" stroke-linecap="round" stroke-linejoin="round" stroke-dasharray="1 5"/>
<rect width="25.4512" height="15.907" rx="7.95351" transform="matrix(-0.999571 -0.0292719 -0.0292719 0.999571 1115.53 136.504)" fill="#D5D4E2"/>
<path d="M1106.2 148.673C1106.27 146.438 1104.51 144.572 1102.27 144.507V144.507C1100.04 144.442 1098.17 146.2 1098.11 148.436L1098 151.905L1106.1 152.142L1106.2 148.673Z" fill="white"/>
<rect width="8.09812" height="8.09812" rx="4.04906" transform="matrix(-0.999571 -0.0292719 -0.0292719 0.999571 1114 139.063)" fill="white"/>
<rect width="8.09812" height="8.09812" rx="4.04906" transform="matrix(-0.999571 -0.0292719 -0.0292719 0.999571 1099.35 138.647)" fill="white"/>
<rect width="4.40794" height="4.40794" rx="2.20397" transform="matrix(-0.999571 -0.0292719 -0.0292719 0.999571 1112.11 141.026)" fill="#343440"/>
<rect x="1111.59" y="145.02" width="1.60289" height="1.60289" rx="0.801444" transform="rotate(-178.323 1111.59 145.02)" fill="white"/>
<rect width="4.40794" height="4.40794" rx="2.20397" transform="matrix(-0.999571 -0.0292719 -0.0292719 0.999571 1097.69 140.604)" fill="#343440"/>
<rect x="1097.17" y="144.598" width="1.60289" height="1.60289" rx="0.801444" transform="rotate(-178.323 1097.17 144.598)" fill="white"/>
<line x1="0.5" y1="-0.5" x2="1.83258" y2="-0.5" transform="matrix(-0.79882 0.60157 0.60157 0.79882 1104.31 147.16)" stroke="#343440" stroke-linecap="round"/>
<line x1="1101.01" y1="146.985" x2="1102.03" y2="147.847" stroke="#343440" stroke-linecap="round"/>
<line x1="0.5" y1="-0.5" x2="3.54906" y2="-0.5" transform="matrix(-0.0292719 0.999571 0.999571 0.0292719 1102.75 147.993)" stroke="#343440" stroke-linecap="square"/>
<path d="M785.752 181.322C788.175 181.393 790.277 179.662 790.673 177.271L793.342 161.163C794.012 157.119 790.961 153.412 786.863 153.292V153.292C782.86 153.175 779.632 156.539 779.913 160.533L781.062 176.82C781.237 179.303 783.265 181.249 785.752 181.322V181.322Z" fill="#E5E5EB" stroke="#E5E5EB" stroke-width="6" stroke-linecap="round" stroke-linejoin="round" stroke-dasharray="1 5"/>
<path d="M749.302 180.254C751.725 180.325 753.827 178.595 754.223 176.204L756.892 160.096C757.562 156.051 754.511 152.344 750.413 152.224V152.224C746.41 152.107 743.181 155.471 743.463 159.466L744.611 175.753C744.787 178.235 746.814 180.182 749.302 180.254V180.254Z" fill="#E5E5EB" stroke="#E5E5EB" stroke-width="6" stroke-linecap="round" stroke-linejoin="round" stroke-dasharray="1 5"/>
<path d="M837.217 63.6454C837.309 62.5685 836.703 61.5773 835.738 61.0918V61.0918C835.368 60.9061 834.966 60.8031 834.553 60.8035C832.713 60.8053 827.284 60.9617 824.851 62.6776C826.467 66.7757 830.591 69.2112 834.103 72.7862C836.306 70.808 836.999 66.1901 837.217 63.6454Z" fill="#D5D4E2"/>
<path d="M790.8 61.9968C790.771 60.9164 791.434 59.9624 792.426 59.5342V59.5342C792.805 59.3704 793.213 59.2912 793.625 59.3158C795.462 59.4252 800.873 59.899 803.201 61.7543C801.348 65.7509 797.089 67.9409 793.373 71.3042C791.29 69.2005 790.868 64.5499 790.8 61.9968Z" fill="#D5D4E2"/>
<rect width="42.8043" height="78.3782" rx="21.4022" transform="matrix(-0.999571 -0.0292719 -0.0292719 0.999571 834.589 59.2524)" fill="white" stroke="white" stroke-width="6" stroke-linecap="round" stroke-linejoin="round" stroke-dasharray="1 5"/>
<rect width="57.3032" height="104.588" rx="28.6516" transform="matrix(0.0292719 -0.999571 -0.999571 -0.0292719 831.259 161.407)" fill="white" stroke="white" stroke-width="6" stroke-linecap="round" stroke-linejoin="round" stroke-dasharray="1 5"/>
<path d="M802.882 185.031C805.305 185.102 807.407 183.371 807.803 180.98L810.472 164.872C811.142 160.828 808.091 157.121 803.993 157.001V157.001C799.99 156.884 796.762 160.248 797.043 164.242L798.192 180.529C798.367 183.012 800.394 184.958 802.882 185.031V185.031Z" fill="white" stroke="white" stroke-width="6" stroke-linecap="round" stroke-linejoin="round" stroke-dasharray="1 5"/>
<path d="M765.23 183.928C767.653 183.999 769.755 182.269 770.151 179.878L772.819 163.77C773.489 159.725 770.438 156.018 766.34 155.898V155.898C762.338 155.781 759.109 159.145 759.391 163.14L760.539 179.427C760.714 181.909 762.742 183.855 765.23 183.928V183.928Z" fill="white" stroke="white" stroke-width="6" stroke-linecap="round" stroke-linejoin="round" stroke-dasharray="1 5"/>
<rect width="25.4512" height="15.907" rx="7.95351" transform="matrix(-0.999571 -0.0292719 -0.0292719 0.999571 825.476 74.0312)" fill="#D5D4E2"/>
<path d="M816.15 86.2002C816.215 83.9649 814.457 82.0998 812.221 82.0343V82.0343C809.986 81.9688 808.121 83.7278 808.055 85.9631L807.954 89.4322L816.048 89.6693L816.15 86.2002Z" fill="white"/>
<rect width="8.09812" height="8.09812" rx="4.04906" transform="matrix(-0.999571 -0.0292719 -0.0292719 0.999571 823.954 76.5908)" fill="white"/>
<rect width="8.09812" height="8.09812" rx="4.04906" transform="matrix(-0.999571 -0.0292719 -0.0292719 0.999571 809.301 76.1748)" fill="white"/>
<rect width="4.40794" height="4.40794" rx="2.20397" transform="matrix(-0.999571 -0.0292719 -0.0292719 0.999571 822.06 78.5532)" fill="#343440"/>
<rect x="821.541" y="82.5469" width="1.60289" height="1.60289" rx="0.801444" transform="rotate(-178.323 821.541 82.5469)" fill="white"/>
<rect width="4.40794" height="4.40794" rx="2.20397" transform="matrix(-0.999571 -0.0292719 -0.0292719 0.999571 807.64 78.1309)" fill="#343440"/>
<rect x="807.122" y="82.125" width="1.60289" height="1.60289" rx="0.801444" transform="rotate(-178.323 807.122 82.125)" fill="white"/>
<line x1="0.5" y1="-0.5" x2="1.83258" y2="-0.5" transform="matrix(-0.79882 0.60157 0.60157 0.79882 814.263 84.687)" stroke="#343440" stroke-linecap="round"/>
<line x1="810.962" y1="84.5119" x2="811.977" y2="85.3744" stroke="#343440" stroke-linecap="round"/>
<line x1="0.5" y1="-0.5" x2="3.54906" y2="-0.5" transform="matrix(-0.0292719 0.999571 0.999571 0.0292719 812.697 85.5205)" stroke="#343440" stroke-linecap="square"/>
<path d="M611.566 114.565C612.153 112.213 614.387 110.657 616.797 110.923L633.026 112.711C637.101 113.16 639.844 117.1 638.851 121.077V121.077C637.882 124.962 633.769 127.161 630 125.809L614.631 120.298C612.288 119.458 610.963 116.979 611.566 114.565V114.565Z" fill="#E5E5EB" stroke="#E5E5EB" stroke-width="6" stroke-linecap="round" stroke-linejoin="round" stroke-dasharray="1 5"/>
<path d="M602.734 149.944C603.321 147.593 605.555 146.037 607.965 146.302L624.194 148.091C628.269 148.54 631.012 152.48 630.019 156.457V156.457C629.05 160.342 624.937 162.541 621.168 161.189L605.799 155.678C603.456 154.838 602.131 152.359 602.734 149.944V149.944Z" fill="#E5E5EB" stroke="#E5E5EB" stroke-width="6" stroke-linecap="round" stroke-linejoin="round" stroke-dasharray="1 5"/>
<path d="M738.777 96.8489C739.838 97.0516 740.629 97.9029 740.835 98.9638V98.9638C740.914 99.3696 740.904 99.7844 740.792 100.182C740.293 101.953 738.673 107.138 736.363 109.016C732.855 106.352 731.626 101.723 729.134 97.3743C731.635 95.7888 736.268 96.37 738.777 96.8489Z" fill="#D5D4E2"/>
<path d="M727.808 141.982C728.84 142.302 729.938 141.922 730.618 141.083V141.083C730.879 140.762 731.065 140.391 731.153 139.987C731.545 138.189 732.552 132.852 731.396 130.108C727.047 130.811 723.786 134.32 719.543 136.987C721.005 139.561 725.368 141.226 727.808 141.982Z" fill="#D5D4E2"/>
<rect x="742.295" y="100.567" width="42.8043" height="78.3782" rx="21.4022" transform="rotate(104.016 742.295 100.567)" fill="white" stroke="white" stroke-width="6" stroke-linecap="round" stroke-linejoin="round" stroke-dasharray="1 5"/>
<rect x="643.048" y="76.1406" width="57.3032" height="104.588" rx="28.6516" transform="rotate(14.0163 643.048 76.1406)" fill="white" stroke="white" stroke-width="6" stroke-linecap="round" stroke-linejoin="round" stroke-dasharray="1 5"/>
<path d="M612.628 97.0704C613.215 94.7188 615.45 93.163 617.859 93.4284L634.088 95.2166C638.163 95.6656 640.907 99.6057 639.914 103.583V103.583C638.944 107.468 634.832 109.667 631.063 108.315L615.693 102.804C613.351 101.964 612.026 99.4851 612.628 97.0704V97.0704Z" fill="white" stroke="white" stroke-width="6" stroke-linecap="round" stroke-linejoin="round" stroke-dasharray="1 5"/>
<path d="M603.505 133.617C604.092 131.265 606.327 129.709 608.736 129.975L624.965 131.763C629.04 132.212 631.784 136.152 630.791 140.13V140.13C629.821 144.015 625.709 146.213 621.94 144.861L606.57 139.35C604.228 138.51 602.903 136.032 603.505 133.617V133.617Z" fill="white" stroke="white" stroke-width="6" stroke-linecap="round" stroke-linejoin="round" stroke-dasharray="1 5"/>
<rect x="725.602" y="105.343" width="25.4512" height="15.907" rx="7.95351" transform="rotate(104.016 725.602 105.343)" fill="#D5D4E2"/>
<path d="M711.363 111.03C713.533 111.572 714.853 113.77 714.311 115.939V115.939C713.77 118.109 711.572 119.429 709.402 118.887L706.035 118.047L707.996 110.189L711.363 111.03Z" fill="white"/>
<rect x="722.726" y="106.116" width="8.09812" height="8.09812" rx="4.04906" transform="rotate(104.016 722.726 106.116)" fill="white"/>
<rect x="719.163" y="120.336" width="8.09812" height="8.09812" rx="4.04906" transform="rotate(104.016 719.163 120.336)" fill="white"/>
<rect x="720.324" y="107.409" width="4.40794" height="4.40794" rx="2.20397" transform="rotate(104.016 720.324 107.409)" fill="#343440"/>
<rect width="1.60289" height="1.60289" rx="0.801444" transform="matrix(-0.242197 0.970227 0.970227 0.242197 716.339 106.827)" fill="white"/>
<rect x="716.83" y="121.406" width="4.40794" height="4.40794" rx="2.20397" transform="rotate(104.016 716.83 121.406)" fill="#343440"/>
<rect width="1.60289" height="1.60289" rx="0.801444" transform="matrix(-0.242197 0.970227 0.970227 0.242197 712.845 120.824)" fill="white"/>
<line x1="712.216" y1="113.957" x2="711.156" y2="114.765" stroke="#343440" stroke-linecap="round"/>
<line x1="0.5" y1="-0.5" x2="1.83258" y2="-0.5" transform="matrix(-0.416972 -0.908919 -0.908919 0.416972 711.34 117.144)" stroke="#343440" stroke-linecap="round"/>
<line x1="710.478" y1="114.902" x2="707.519" y2="114.163" stroke="#343440" stroke-linecap="square"/>
</g>
<defs>
<clipPath id="clip0_627_181">
<rect width="1794" height="172" fill="white"/>
</clipPath>
</defs>
</svg>
